<svg xmlns="http://www.w3.org/2000/svg" viewBox="0 0 427.7 270.5">//lines<path class="line" d="M195.6 151.8c5.4-6.9 10.4-14.9 10.5-26.6 0-11.6-5.1-19.6-10.5-26.6-13.2-16.8-30.9-34.8-50-50.8-10-8.3-40.5-28.2-72.2-47.9H73c31.8 19.8 62.5 39.8 72.5 48.1 19.1 15.9 36.8 33.9 50 50.7 5.4 6.9 10.4 14.9 10.4 26.4 0 11.5-5 19.5-10.4 26.4-13.1 16.8-30.9 34.8-50 50.7-13.7 11.4-63.9 43.8-103.4 68.1h.5C82 246 132 213.8 145.7 202.4c19-15.8 36.8-33.8 49.9-50.6z"/><path d="M94.8 91.5c8.7 20.6 21.2 39.1 37.1 55 15.9 15.9 34.4 28.4 55 37.1 21.3 9 44 13.6 67.3 13.6s46-4.6 67.3-13.6c20.6-8.7 39.1-21.2 55-37.1 15.9-15.9 28.4-34.4 37.1-55 9-21.3 13.6-44 13.6-67.3 0-8.2-.6-16.2-1.7-24.2h-.3c1.1 7.9 1.7 16 1.7 24.2 0 95.3-77.5 172.7-172.7 172.7S81.4 119.4 81.4 24.2c0-8.2.6-16.3 1.7-24.2h-.3c-1.1 8-1.7 16-1.7 24.2.1 23.4 4.7 46 13.7 67.3z"/><path d="M323.4 193.8c-95.3 0-172.8-77.5-172.8-172.8 0-7.1.4-14.2 1.3-21.1h-.3c-.8 7-1.3 14-1.3 21.1 0 23.4 4.6 46 13.6 67.3 8.7 20.6 21.2 39.1 37.1 55 15.9 15.9 34.4 28.4 55 37.1 21.3 9 44 13.6 67.3 13.6 23.4 0 46-4.6 67.3-13.6 13.2-5.6 25.6-12.8 37-21.4v-.4c-28.9 22.1-65.1 35.2-104.2 35.2z"/><path class="line" d="M388.9 192.6c-95.3 0-172.8-77.5-172.8-172.8 0-6.7.4-13.3 1.1-19.8h-.2c-.7 6.5-1.1 13.1-1.1 19.8 0 23.4 4.6 46 13.6 67.3 8.7 20.6 21.2 39.1 37.1 55 15.9 15.9 34.4 28.4 55 37.1 21.3 9 44 13.6 67.3 13.6 13.2 0 26.2-1.5 38.8-4.4v-.3c-12.5 2.9-25.5 4.5-38.8 4.5z"/><path class="line" d="M233.2 151.7c-5.4-6.9-10.4-14.9-10.4-26.4 0-11.5 5-19.5 10.4-26.4 13.1-16.8 30.9-34.8 50-50.7 10.4-8.7 38.5-28.8 66.7-48.1h-.4C321.3 19.4 293.4 39.3 283 48c-19.1 15.9-36.8 34-50 50.8-5.4 6.9-10.4 14.9-10.5 26.6 0 11.6 5.1 19.6 10.5 26.6 13.2 16.8 30.9 34.8 50 50.8 15.4 12.8 69.9 46.4 106.9 67.9h.5c-37-21.5-91.9-55.3-107.3-68.1-19-16.1-36.8-34.2-49.9-50.9z"/><path class="line" d="M218.4 224c0-95.3 77.5-172.8 172.8-172.8 12.5 0 24.7 1.4 36.5 3.9v-.3c-11.9-2.6-24.1-3.9-36.5-3.9-23.4 0-46 4.6-67.3 13.6-20.6 8.7-39.1 21.2-55 37.1-15.9 15.9-28.4 34.4-37.1 55-9 21.3-13.6 44-13.6 67.3 0 15.9 2.1 31.5 6.3 46.5h.3c-4.1-14.7-6.4-30.3-6.4-46.4z"/><path class="line" d="M152.1 218.7c0-88.4 71.9-160.2 160.2-160.2 45.3 0 86.2 18.9 115.3 49.1v-.5c-.6-.6-1.2-1.3-1.9-1.9-14.7-14.7-31.9-26.3-51-34.4-19.7-8.3-40.7-12.6-62.4-12.6-21.7 0-42.7 4.2-62.5 12.6-19.1 8.1-36.3 19.7-51 34.4-14.7 14.7-26.3 31.9-34.4 51-8.4 19.8-12.6 40.8-12.6 62.5 0 17.8 2.9 35.2 8.5 51.8h.3c-5.5-16.2-8.5-33.7-8.5-51.8z"/><path class="line" d="M413.8 159.2c-8.7-20.6-21.2-39.1-37.1-55-15.9-15.9-34.4-28.4-55-37.1-21.3-9-44-13.6-67.3-13.6-23.4 0-46 4.6-67.3 13.6-20.6 8.7-39.1 21.2-55 37.1-15.9 15.9-28.4 34.4-37.1 55-9 21.3-13.6 44-13.6 67.3 0 15 1.9 29.7 5.6 44h.3c-3.7-14.1-5.7-28.8-5.7-44 0-95.3 77.5-172.8 172.8-172.8 95.3 0 172.8 77.5 172.8 172.8 0 15.2-2 29.9-5.7 44h.3c3.7-14.3 5.6-29 5.6-44 0-23.4-4.6-46-13.6-67.3z"/>//logo<path class="logo" d="M215.4 125.7h7.3l.3-6.5h-8.1c-.5-3-1.3-5.8-2.4-8.3h13c1.3-2.7 2.3-5 3.8-7h-30.1c3.5 4.9 6.9 12.6 6.9 21.4 0 7.1-2.2 13.5-4.9 18.2h9.4c2.9-4.6 4.7-10.9 4.8-17.8M191.4 132.5c-2.1 2.3-5 3.7-8.4 3.7-6.8 0-11.7-5.7-11.7-12.6 0-7 5-12.6 11.7-12.6 3.1 0 6 1.3 8.1 3.3 0 0 1.7-2 2.4-2.9.7-.9 1.9-2.1 1.9-2.1-3.4-3.9-8.3-6.4-14-6.4-11.1 0-19.2 9.3-19.2 20.7 0 11.4 8.1 20.7 19.2 20.7 6 0 11-2.7 14.5-6.9 0 0-1.4-1.5-2.2-2.4-1-.9-2.3-2.5-2.3-2.5M257.7 132.6c-2.1 2.3-5 3.7-8.4 3.7-6.8 0-11.7-5.7-11.7-12.6 0-7 5-12.6 11.7-12.6 3.1 0 6 1.3 8 3.3l4.3-5c-3.4-3.9-8.3-6.3-14-6.3-11.1 0-19.2 9.3-19.2 20.7 0 11.4 8.1 20.7 19.2 20.7 5.9 0 11-2.7 14.5-6.9l-4.4-5zM181.1 158.7c.9 0 1.7-.3 2.2-.9l.5.5c-.7.7-1.6 1.1-2.8 1.1-2.3 0-3.9-1.6-3.9-3.9s1.6-3.9 3.9-3.9c1.1 0 2.1.4 2.8 1.1l-.5.5c-.5-.6-1.3-.9-2.2-.9-1.8 0-3 1.3-3 3.2 0 1.9 1.2 3.2 3 3.2M189.8 151.6c2.3 0 3.8 1.6 3.8 3.9s-1.6 3.9-3.8 3.9c-2.3 0-3.8-1.6-3.8-3.9-.1-2.3 1.5-3.9 3.8-3.9m0 7.1c1.8 0 3-1.3 3-3.2 0-1.9-1.2-3.2-3-3.2s-3 1.3-3 3.2c0 1.9 1.2 3.2 3 3.2M196.9 151.7l4.8 6.1v-6.1h.8v7.6h-.5l-4.8-6v6h-.8v-7.6zM209.2 153.1c-.4-.4-1-.7-1.6-.7-1 0-1.4.7-1.4 1.3 0 1.8 3.7 1.2 3.7 3.6 0 1.1-.8 2.2-2.3 2.2-.9 0-1.8-.4-2.4-1l.5-.5c.4.5 1.2.8 1.8.8 1.1 0 1.6-.8 1.6-1.4 0-1.7-3.7-1.1-3.7-3.6 0-1 .7-2.1 2.1-2.1.8 0 1.6.3 2.2.9l-.5.5zM217.4 151.7h.8v4.9c0 1.7-1.2 2.9-2.8 2.9-1.7 0-2.8-1.1-2.8-2.9v-4.9h.8v4.9c0 1.3.8 2.1 2 2.1s2-.9 2-2.1v-4.9zM222.2 158.7h3v.6h-3.8v-7.6h.8zM229.5 159.3h-.8v-6.9h-2.2v-.7h5.2v.7h-2.2zM234.2 151.7h.8v7.6h-.8zM238.7 151.7l4.7 6.1v-6.1h.9v7.6h-.6l-4.7-6v6h-.9v-7.6zM250.9 155.3h2.8v3c-.7.7-1.6 1.1-2.8 1.1-2.3 0-3.8-1.6-3.8-3.9s1.6-3.9 3.8-3.9c1.1 0 2.1.4 2.8 1.1l-.5.5c-.5-.6-1.3-.9-2.2-.9-1.8 0-3 1.3-3 3.2 0 1.9 1.2 3.2 3 3.2.8 0 1.4-.2 1.9-.6v-2h-2v-.8z"/></svg>